<?xml version="1.0" standalone="no"?>
<!DOCTYPE svg PUBLIC "-//W3C//DTD SVG 20010904//EN"
 "http://www.w3.org/TR/2001/REC-SVG-20010904/DTD/svg10.dtd">
<svg version="1.0" xmlns="http://www.w3.org/2000/svg"
 width="512.000000pt" height="512.000000pt" viewBox="0 0 512.000000 512.000000"
 preserveAspectRatio="xMidYMid meet">

<g transform="translate(0.000000,512.000000) scale(0.100000,-0.100000)"
fill="#000000" stroke="none">
<path d="M1300 5102 c-221 -58 -365 -276 -330 -499 15 -96 57 -179 126 -251
33 -34 487 -449 1009 -922 523 -474 950 -865 950 -870 0 -5 -427 -396 -950
-870 -522 -473 -976 -888 -1009 -922 -256 -268 -115 -698 250 -760 141 -23
273 21 399 134 610 549 2244 2034 2284 2076 69 72 108 154 122 260 23 169 -20
318 -122 424 -41 43 -1324 1209 -2279 2072 -84 75 -149 112 -232 131 -84 19
-136 18 -218 -3z"/>
</g>
</svg>
